# xmcd CD database file
#
# Track frame offsets:
#	150
#	14963
#	29669
#	79566
#	95834
#	121348
#	152475
#	178678
#	197929
#
# Disc length: 2814 seconds
#
# Revision: 0
# Processed by: cddbd v1.4PL0 Copyright (c) Steve Scherf et al.
# Submitted via: CDex 1.50
#
DISCID=780afc09
DTITLE=Greg Serrato - Live At Modesto's State Theater
DYEAR=2001
DGENRE=Blues
TTITLE0=Texas Walk
TTITLE1=Phil-Billy Stomp
TTITLE2=Like A Tornado
TTITLE3=Something Fine
TTITLE4=All Along The Watchtower
TTITLE5=Voodoo Child (Slight Return)
TTITLE6=That Ain't Right
TTITLE7=Funky Kenny - Drum Solo
TTITLE8=Holy Smokes
EXTD=YEAR: 2001
EXTT0=
EXTT1=
EXTT2=
EXTT3=
EXTT4=
EXTT5=
EXTT6=
EXTT7=
EXTT8=
PLAYORDER=
